<svg width="100" height="100" viewBox="0 0 100 100" fill="none" xmlns="http://www.w3.org/2000/svg">
<g clip-path="url(#clip0_22_72)">
<path d="M47.8086 0H51.6781C61.7703 0.417969 71.7469 3.82031 79.8367 9.90312C87.5 15.5977 93.4875 23.5258 96.8109 32.4859C98.718 37.4758 99.6734 42.7828 100 48.1047V51.3945C99.6766 60.2172 97.1375 68.9883 92.3984 76.4586C87.0852 84.9703 79.1781 91.8727 69.9555 95.8555C63.9178 98.4735 57.4251 99.8816 50.8453 100H49.1703C40.0023 99.8508 30.8813 97.1406 23.157 92.1938C14.4102 86.6367 7.44297 78.2992 3.60391 68.6648C1.47734 63.4297 0.344531 57.8281 0 52.1969V48.3242C0.39375 37.082 4.65078 25.9734 12.0391 17.468C18.1 10.3984 26.1719 5.0625 35.068 2.29453C39.1969 0.992187 43.4969 0.320312 47.8086 0ZM19.6805 29.3148C19.657 38.8094 19.6719 48.3031 19.6719 57.7945C20.7891 57.8031 21.9062 57.8031 23.0258 57.8031C22.9672 49.6523 23.1047 41.5039 22.943 33.3555C23.318 34.0641 23.6602 34.793 24.0875 35.4703C28.9336 42.8984 33.6758 50.3906 38.5227 57.8125C39.8805 57.7945 41.2383 57.7945 42.5961 57.8156C42.5937 48.3156 42.5906 38.8156 42.5992 29.3156C41.4925 29.3049 40.3857 29.3017 39.2789 29.3063C39.3375 37.3688 39.1727 45.4312 39.3766 53.4852C34.293 45.3977 29.1414 37.3562 23.9898 29.3094C22.5534 29.3005 21.1169 29.3023 19.6805 29.3148ZM50.0273 29.3063C49.9266 38.8063 50.0242 48.3062 49.9906 57.8031C55.0445 57.7914 60.0984 57.8219 65.1547 57.7875C65.1365 56.7583 65.1428 55.7289 65.1734 54.7C61.2578 54.6875 57.3398 54.7055 53.4211 54.6844C53.3633 51.3953 53.418 48.1016 53.3898 44.8117C56.8234 44.7508 60.257 44.8211 63.6867 44.775C63.6781 43.7773 63.6781 42.7797 63.6719 41.7812C60.2445 41.8914 56.818 41.7391 53.3875 41.7906C53.3969 38.6477 53.4031 35.5016 53.4031 32.3547C57.0742 32.3547 60.7453 32.3391 64.4133 32.3641C64.407 31.3477 64.4133 30.3281 64.4258 29.3125C59.625 29.3 54.8242 29.3063 50.0273 29.3063ZM67.6852 29.3484C67.6883 30.3375 67.6883 31.3234 67.6914 32.3094C70.4164 32.2781 73.1383 32.3945 75.8633 32.3367C75.8453 40.8234 75.8664 49.3039 75.8547 57.7852C76.9953 57.8187 78.1438 57.8125 79.2844 57.7148C79.1906 53.0336 79.3766 48.3492 79.1625 43.6703C79.2148 41.5617 79.1078 39.4562 79.2539 37.35C79.3367 35.6781 79.0375 34.0086 79.2266 32.3367C81.9734 32.3734 84.7227 32.3484 87.4687 32.3484C87.4563 31.3501 87.4758 30.3517 87.5273 29.3547C80.9109 29.2727 74.2953 29.2813 67.6852 29.3484ZM10.5859 53.9797C9.04141 54.6906 8.94063 57.1227 10.4695 57.907C11.8133 58.8289 13.8328 57.6172 13.7719 56.0242C13.8758 54.4586 11.9828 53.143 10.5859 53.9797ZM33.4219 65.9242C30.0805 68.6344 30.1203 74.6703 33.8125 77.057C35.8969 78.3813 38.5797 78.107 40.7828 77.225C40.7922 76.7398 40.8039 76.257 40.8219 75.7719C38.7352 76.8617 35.8141 77.0844 34.0445 75.2953C31.7281 72.7664 32.25 68.0539 35.3047 66.3297C37.032 65.4203 39.1383 65.6859 40.8406 66.5164C40.8352 66.0008 40.8375 65.4852 40.8406 64.9695C38.4211 64.1109 35.4328 64.157 33.4219 65.9242ZM46.8648 68.0414C45.3883 68.2133 43.9289 68.9945 43.2453 70.3586C42.2664 72.3086 42.3789 74.9422 43.9203 76.5773C45.5102 78.3719 48.5648 78.3898 50.3109 76.8094C52.2055 75.0063 52.4195 71.7563 50.9023 69.65C50.0055 68.3773 48.3453 67.9438 46.8648 68.0414ZM60.8391 70.1688C59.5422 72.4211 59.7984 75.8328 62.0875 77.3648C63.793 78.318 65.9414 78.0148 67.6141 77.1242C67.6109 76.6422 67.6172 76.1594 67.6383 75.6805C66.3203 76.5164 64.5625 77.1305 63.0977 76.2875C62.075 75.7234 61.7664 74.5242 61.6023 73.4555C63.8484 73.425 66.0914 73.3914 68.3406 73.3977C68.282 71.9695 68.2484 70.3555 67.2078 69.2508C65.4898 67.3523 62.0172 67.9563 60.8391 70.1688ZM54.2656 68.3438V77.725C54.775 77.725 55.2906 77.725 55.807 77.7281C55.825 76.0133 55.7758 74.2953 55.825 72.5766C55.8375 71.5844 56.2367 70.5781 56.9844 69.9094C57.6102 69.4367 58.4555 69.6984 59.1727 69.7172C59.1633 69.2203 59.157 68.725 59.1547 68.2312C57.7539 67.9203 56.5484 68.7406 55.8406 69.8852C55.825 69.3906 55.8094 68.8961 55.8008 68.4055C55.2883 68.3867 54.775 68.3656 54.2656 68.3438Z" fill="#2C2C2C"/>
<path d="M45.9046 69.7054C47.1953 69.0765 49.0476 69.3851 49.7679 70.7211C50.5882 72.1953 50.5703 74.1453 49.6609 75.5734C48.4734 77.3593 45.3429 76.9687 44.5648 74.9937C43.7773 73.2297 44.0828 70.7101 45.9046 69.7054ZM61.75 72.1984C61.7859 70.9687 62.6437 69.7476 63.8796 69.4797C64.6421 69.3515 65.5179 69.4851 66.0461 70.0992C66.5711 70.657 66.6812 71.4383 66.8117 72.1617C65.1242 72.1711 63.4375 72.1375 61.75 72.1984Z" fill="#2C2C2C"/>
</g>
<defs>
<clipPath id="clip0_22_72">
<rect width="100" height="100" fill="white"/>
</clipPath>
</defs>
</svg>
