<svg width="1512" height="982" viewBox="0 0 1512 982" fill="none" xmlns="http://www.w3.org/2000/svg">
<g clip-path="url(#clip0_43_188)">
<line x1="1508" y1="900.25" y2="900.25" stroke="#C6C6C6" stroke-width="0.5"/>
<line x1="1508" y1="800.25" y2="800.25" stroke="#C6C6C6" stroke-width="0.5"/>
<line x1="1508" y1="700.25" y2="700.25" stroke="#C6C6C6" stroke-width="0.5"/>
<line x1="1508" y1="600.25" y2="600.25" stroke="#C6C6C6" stroke-width="0.5"/>
<line x1="1508" y1="500.25" y2="500.25" stroke="#C6C6C6" stroke-width="0.5"/>
<line x1="1508" y1="400.25" y2="400.25" stroke="#C6C6C6" stroke-width="0.5"/>
<line x1="1508" y1="300.25" y2="300.25" stroke="#C6C6C6" stroke-width="0.5"/>
<line x1="1508" y1="200.25" y2="200.25" stroke="#C6C6C6" stroke-width="0.5"/>
<line x1="1508" y1="100.25" y2="100.25" stroke="#C6C6C6" stroke-width="0.5"/>
<line x1="1508" y1="0.25" y2="0.25" stroke="#C6C6C6" stroke-width="0.5"/>
<line x1="99.75" y1="982.041" x2="99.75" stroke="#C6C6C6" stroke-width="0.5"/>
<line x1="199.75" y1="982.041" x2="199.75" stroke="#C6C6C6" stroke-width="0.5"/>
<line x1="299.75" y1="982.041" x2="299.75" stroke="#C6C6C6" stroke-width="0.5"/>
<line x1="399.75" y1="982.041" x2="399.75" stroke="#C6C6C6" stroke-width="0.5"/>
<line x1="499.75" y1="982.041" x2="499.75" stroke="#C6C6C6" stroke-width="0.5"/>
<line x1="599.75" y1="982.041" x2="599.75" stroke="#C6C6C6" stroke-width="0.5"/>
<line x1="699.75" y1="982.041" x2="699.75" stroke="#C6C6C6" stroke-width="0.5"/>
<line x1="799.75" y1="982.041" x2="799.75" stroke="#C6C6C6" stroke-width="0.5"/>
<line x1="899.75" y1="982.041" x2="899.75" stroke="#C6C6C6" stroke-width="0.5"/>
<line x1="999.75" y1="982.041" x2="999.75" stroke="#C6C6C6" stroke-width="0.5"/>
<line x1="1099.75" y1="982.041" x2="1099.75" stroke="#C6C6C6" stroke-width="0.5"/>
<line x1="1199.75" y1="982.041" x2="1199.75" stroke="#C6C6C6" stroke-width="0.5"/>
<line x1="1299.75" y1="982.041" x2="1299.75" stroke="#C6C6C6" stroke-width="0.5"/>
<line x1="1399.75" y1="982.041" x2="1399.75" stroke="#C6C6C6" stroke-width="0.5"/>
<line x1="1499.75" y1="982.041" x2="1499.75" stroke="#C6C6C6" stroke-width="0.5"/>
</g>
<defs>
<clipPath id="clip0_43_188">
<rect width="1512" height="982" fill="white"/>
</clipPath>
</defs>
</svg>
