<svg width="1512" height="982" viewBox="0 0 1512 982" fill="none" xmlns="http://www.w3.org/2000/svg">
<g clip-path="url(#clip0_43_188)">
<line x1="51.75" y1="982.041" x2="51.75" stroke="#C4C4C4" stroke-width="0.5"/>
<line x1="103.75" y1="982.041" x2="103.75" stroke="#C4C4C4" stroke-width="0.5"/>
<line x1="155.75" y1="982.041" x2="155.75" stroke="#C4C4C4" stroke-width="0.5"/>
<line x1="207.75" y1="982.041" x2="207.75" stroke="#C4C4C4" stroke-width="0.5"/>
<line x1="259.75" y1="982.041" x2="259.75" stroke="#C4C4C4" stroke-width="0.5"/>
<line x1="311.75" y1="982.041" x2="311.75" stroke="#C4C4C4" stroke-width="0.5"/>
<line x1="363.75" y1="982.041" x2="363.75" stroke="#C4C4C4" stroke-width="0.5"/>
<line x1="415.75" y1="982.041" x2="415.75" stroke="#C4C4C4" stroke-width="0.5"/>
<line x1="467.75" y1="982.041" x2="467.75" stroke="#C4C4C4" stroke-width="0.5"/>
<line x1="519.75" y1="982.041" x2="519.75" stroke="#C4C4C4" stroke-width="0.5"/>
<line x1="571.75" y1="982.041" x2="571.75" stroke="#C4C4C4" stroke-width="0.5"/>
<line x1="623.75" y1="982.041" x2="623.75" stroke="#C4C4C4" stroke-width="0.5"/>
<line x1="675.75" y1="982.041" x2="675.75" stroke="#C4C4C4" stroke-width="0.5"/>
<line x1="727.75" y1="982.041" x2="727.75" stroke="#C4C4C4" stroke-width="0.5"/>
<line x1="779.75" y1="982.041" x2="779.75" stroke="#C4C4C4" stroke-width="0.5"/>
<line x1="831.75" y1="982.041" x2="831.75" stroke="#C4C4C4" stroke-width="0.5"/>
<line x1="883.75" y1="982.041" x2="883.75" stroke="#C4C4C4" stroke-width="0.5"/>
<line x1="935.75" y1="982.041" x2="935.75" stroke="#C4C4C4" stroke-width="0.5"/>
<line x1="987.75" y1="982.041" x2="987.75" stroke="#C4C4C4" stroke-width="0.5"/>
<line x1="1039.75" y1="982.041" x2="1039.75" stroke="#C4C4C4" stroke-width="0.5"/>
<line x1="1091.75" y1="982.041" x2="1091.75" stroke="#C4C4C4" stroke-width="0.5"/>
<line x1="1143.75" y1="982.041" x2="1143.75" stroke="#C4C4C4" stroke-width="0.5"/>
<line x1="1195.75" y1="982.041" x2="1195.75" stroke="#C4C4C4" stroke-width="0.5"/>
<line x1="1247.75" y1="982.041" x2="1247.75" stroke="#C4C4C4" stroke-width="0.5"/>
<line x1="1299.75" y1="982.041" x2="1299.75" stroke="#C4C4C4" stroke-width="0.5"/>
<line x1="1351.75" y1="982.041" x2="1351.75" stroke="#C4C4C4" stroke-width="0.5"/>
<line x1="1403.75" y1="982.041" x2="1403.75" stroke="#C4C4C4" stroke-width="0.5"/>
<line x1="1455.75" y1="982.041" x2="1455.75" stroke="#C4C4C4" stroke-width="0.5"/>
<line x1="1507.75" y1="982.041" x2="1507.75" stroke="#C4C4C4" stroke-width="0.5"/>
<line x1="1508" y1="981.25" y2="981.25" stroke="#C4C4C4" stroke-width="0.5"/>
<line x1="1508" y1="929.25" y2="929.25" stroke="#C4C4C4" stroke-width="0.5"/>
<line x1="1508" y1="877.25" y2="877.25" stroke="#C4C4C4" stroke-width="0.5"/>
<line x1="1508" y1="825.25" y2="825.25" stroke="#C4C4C4" stroke-width="0.5"/>
<line x1="1508" y1="773.25" y2="773.25" stroke="#C4C4C4" stroke-width="0.5"/>
<line x1="1508" y1="721.25" y2="721.25" stroke="#C4C4C4" stroke-width="0.5"/>
<line x1="1508" y1="669.25" y2="669.25" stroke="#C4C4C4" stroke-width="0.5"/>
<line x1="1508" y1="617.25" y2="617.25" stroke="#C4C4C4" stroke-width="0.5"/>
<line x1="1508" y1="565.25" y2="565.25" stroke="#C4C4C4" stroke-width="0.5"/>
<line x1="1508" y1="513.25" y2="513.25" stroke="#C4C4C4" stroke-width="0.5"/>
<line x1="1508" y1="461.25" y2="461.25" stroke="#C4C4C4" stroke-width="0.5"/>
<line x1="1508" y1="409.25" y2="409.25" stroke="#C4C4C4" stroke-width="0.5"/>
<line x1="1508" y1="357.25" y2="357.25" stroke="#C4C4C4" stroke-width="0.5"/>
<line x1="1508" y1="305.25" y2="305.25" stroke="#C4C4C4" stroke-width="0.5"/>
<line x1="1508" y1="253.25" y2="253.25" stroke="#C4C4C4" stroke-width="0.5"/>
<line x1="1508" y1="201.25" y2="201.25" stroke="#C4C4C4" stroke-width="0.5"/>
<line x1="1508" y1="149.25" y2="149.25" stroke="#C4C4C4" stroke-width="0.5"/>
<line x1="1508" y1="97.25" y2="97.25" stroke="#C4C4C4" stroke-width="0.5"/>
<line x1="1508" y1="45.25" y2="45.25" stroke="#C4C4C4" stroke-width="0.5"/>
</g>
<defs>
<clipPath id="clip0_43_188">
<rect width="1512" height="982" fill="white"/>
</clipPath>
</defs>
</svg>
