<svg width="167" height="34" viewBox="0 0 167 34" fill="none" xmlns="http://www.w3.org/2000/svg">
<g clip-path="url(#clip0_22_95)">
<path d="M140.105 0.0140577V5.39521H128.566V33.7058H122.796V5.39554H111.017V0.0140577H140.105ZM141.402 30.4964C141.808 30.4964 142.164 30.6428 142.465 30.9364C142.77 31.2297 142.922 31.5811 142.927 31.9904C142.926 32.259 142.851 32.5222 142.711 32.7512C142.574 32.9771 142.382 33.1645 142.152 33.2955C141.926 33.4312 141.666 33.502 141.402 33.5001C140.979 33.5001 140.62 33.3533 140.319 33.0601C140.018 32.7665 139.869 32.4112 139.873 31.9904C139.869 31.5811 140.018 31.2297 140.319 30.9364C140.62 30.6428 140.979 30.4964 141.402 30.4964ZM27.0449 33.7058L5.76998 7.20146V33.692H0V0H7.21199L34.0905 33.4537L34.0908 5.39554L34.0886 0.0140577H63.1766V5.39521H39.8605V14.0521H58.6115V19.4336H39.8605V28.3246H63.1769V33.7058H27.0449ZM81.6685 19.3823L85.4499 24.0942L77.7016 33.7457H70.1296L81.6685 19.3823ZM77.7016 0.0281154L87.464 12.1798L97.1956 0.0653846L104.747 0.0539423L91.2443 16.8856L104.768 33.7198H97.1956L70.1511 0.0281154H77.7016ZM151.249 19.3068H153.806V29.1798C153.802 30.0871 153.606 30.8628 153.224 31.5157C152.837 32.1679 152.301 32.6662 151.613 33.0176C150.929 33.3648 150.127 33.5426 149.216 33.5426C148.384 33.5426 147.637 33.3923 146.973 33.0987C146.308 32.8051 145.781 32.3651 145.393 31.7858C145.002 31.2068 144.811 30.4846 144.811 29.6199H147.372C147.376 29.9981 147.461 30.326 147.625 30.6007C147.787 30.8717 148.023 31.0901 148.306 31.2297C148.599 31.3768 148.935 31.45 149.314 31.45C149.725 31.45 150.077 31.365 150.362 31.1911C150.647 31.0211 150.866 30.7664 151.019 30.4267C151.167 30.0907 151.246 29.6738 151.249 29.1795V19.3068ZM164.326 23.1677C164.264 22.5695 163.99 22.102 163.513 21.7701C163.032 21.4341 162.41 21.2683 161.648 21.2683C161.113 21.2683 160.651 21.3494 160.268 21.5076C159.885 21.6698 159.588 21.8859 159.385 22.1602C159.182 22.4341 159.08 22.747 159.072 23.0984C159.072 23.3917 159.142 23.6467 159.279 23.8588C159.421 24.0813 159.612 24.2677 159.838 24.4035C160.083 24.5582 160.346 24.6838 160.62 24.7778C160.909 24.8782 161.199 24.9632 161.488 25.0328L162.821 25.3611C163.357 25.4846 163.877 25.6504 164.373 25.8629C164.869 26.0715 165.319 26.3379 165.714 26.6583C166.109 26.9787 166.421 27.3648 166.652 27.8166C166.883 28.2684 167 28.7973 167 29.4074C167 30.2296 166.789 30.9518 166.363 31.5772C165.937 32.199 165.323 32.6854 164.518 33.0369C163.716 33.3844 162.746 33.5619 161.605 33.5619C160.503 33.5619 159.541 33.3919 158.732 33.0523C157.919 32.7165 157.285 32.2219 156.828 31.5733C156.37 30.9246 156.124 30.1332 156.089 29.2027H158.623C158.658 29.6892 158.814 30.0946 159.08 30.4228C159.349 30.7471 159.701 30.9864 160.131 31.1486C160.565 31.3071 161.05 31.3882 161.586 31.3882C162.145 31.3882 162.637 31.3032 163.063 31.1371C163.485 30.9711 163.818 30.7396 164.056 30.4382C164.299 30.1407 164.42 29.7896 164.424 29.3881C164.42 29.0213 164.31 28.7163 164.099 28.4766C163.884 28.2373 163.587 28.0366 163.208 27.8744C162.825 27.7123 162.379 27.5655 161.871 27.4383L160.252 27.029C159.083 26.7315 158.157 26.28 157.481 25.6736C156.801 25.0675 156.464 24.2646 156.464 23.2567C156.464 22.4305 156.691 21.7044 157.149 21.0826C157.602 20.4615 158.224 19.9786 159.009 19.635C159.799 19.2875 160.691 19.1175 161.683 19.1175C162.692 19.1175 163.575 19.2875 164.338 19.635C165.1 19.9786 165.698 20.4572 166.132 21.0673C166.566 21.6776 166.793 22.3763 166.805 23.1677H164.326Z" fill="#1A1A1A"/>
</g>
<defs>
<clipPath id="clip0_22_95">
<rect width="167" height="34" fill="white"/>
</clipPath>
</defs>
</svg>
