<svg width="231" height="47" viewBox="0 0 231 47" fill="none" xmlns="http://www.w3.org/2000/svg">
<g clip-path="url(#clip0_22_95)">
<path d="M193.674 0.0194327V7.45809H177.723V46.5933H169.747V7.45854H153.464V0.0194327H193.674ZM195.468 42.1567C196.029 42.1567 196.521 42.3592 196.937 42.765C197.359 43.1704 197.569 43.6562 197.575 44.222C197.574 44.5933 197.471 44.9571 197.277 45.2737C197.088 45.5861 196.822 45.845 196.505 46.0261C196.191 46.2138 195.833 46.3116 195.468 46.309C194.883 46.309 194.386 46.1061 193.971 45.7007C193.554 45.2949 193.348 44.8037 193.354 44.222C193.349 43.6562 193.554 43.1704 193.971 42.765C194.386 42.3592 194.883 42.1567 195.468 42.1567ZM37.3856 46.5933L7.97615 9.95496V46.5743H0V0H9.96951L47.1251 46.2448L47.1256 7.45854L47.1224 0.0194327H87.3323V7.45809H55.1013V19.425H81.0217V26.8641H55.1013V39.1546H87.3328V46.5933H37.3856ZM112.895 26.7932L118.122 33.3067L107.411 46.6484H96.9438L112.895 26.7932ZM107.411 0.0388654L120.906 16.8368L134.359 0.0903846L144.797 0.0745673L126.132 23.3418L144.827 46.6127H134.359L96.9736 0.0388654H107.411ZM209.08 26.6888H212.614V40.3368C212.609 41.5909 212.338 42.6633 211.809 43.5658C211.274 44.4674 210.533 45.1562 209.583 45.642C208.637 46.1219 207.529 46.3678 206.27 46.3678C205.119 46.3678 204.087 46.1599 203.168 45.754C202.249 45.3482 201.52 44.7399 200.985 43.9391C200.444 43.1388 200.179 42.1405 200.179 40.9451H203.72C203.725 41.468 203.844 41.9213 204.07 42.3009C204.294 42.6755 204.62 42.9775 205.011 43.1704C205.416 43.3738 205.881 43.475 206.405 43.475C206.973 43.475 207.459 43.3575 207.853 43.1171C208.247 42.8821 208.55 42.53 208.761 42.0605C208.967 41.5959 209.075 41.0197 209.08 40.3364V26.6888ZM227.156 32.026C227.07 31.199 226.692 30.5527 226.033 30.094C225.367 29.6294 224.509 29.4003 223.454 29.4003C222.715 29.4003 222.077 29.5124 221.547 29.7311C221.018 29.9553 220.607 30.254 220.326 30.6332C220.045 31.0119 219.905 31.4444 219.893 31.9302C219.893 32.3355 219.991 32.6881 220.18 32.9813C220.376 33.2889 220.64 33.5466 220.952 33.7343C221.292 33.948 221.655 34.1217 222.034 34.2517C222.433 34.3904 222.834 34.5079 223.233 34.6042L225.076 35.0579C225.817 35.2288 226.535 35.4579 227.222 35.7516C227.907 36.04 228.529 36.4083 229.075 36.8512C229.621 37.294 230.053 37.8278 230.372 38.4523C230.691 39.0769 230.853 39.8081 230.853 40.6514C230.853 41.788 230.561 42.7863 229.972 43.6508C229.383 44.5104 228.535 45.1828 227.421 45.6686C226.313 46.149 224.973 46.3944 223.395 46.3944C221.871 46.3944 220.542 46.1594 219.423 45.6899C218.299 45.2258 217.424 44.542 216.791 43.6454C216.159 42.7488 215.819 41.6547 215.77 40.3685H219.272C219.321 41.0409 219.537 41.6013 219.905 42.0551C220.277 42.5034 220.763 42.8342 221.358 43.0583C221.958 43.2775 222.628 43.3896 223.368 43.3896C224.141 43.3896 224.822 43.2721 225.411 43.0425C225.995 42.8129 226.454 42.493 226.784 42.0763C227.119 41.6651 227.286 41.1797 227.292 40.6247C227.286 40.1177 227.134 39.696 226.843 39.3648C226.546 39.034 226.135 38.7565 225.611 38.5323C225.082 38.3082 224.465 38.1053 223.763 37.9295L221.525 37.3636C219.91 36.9524 218.629 36.3283 217.694 35.49C216.754 34.6521 216.289 33.5422 216.289 32.1489C216.289 31.0069 216.602 30.0032 217.235 29.1436C217.862 28.285 218.721 27.6175 219.807 27.1425C220.898 26.6621 222.131 26.4271 223.503 26.4271C224.898 26.4271 226.119 26.6621 227.173 27.1425C228.226 27.6175 229.053 28.2791 229.653 29.1224C230.253 29.9661 230.567 30.9319 230.583 32.026H227.156Z" fill="#1A1A1A"/>
</g>
<defs>
<clipPath id="clip0_22_95">
<rect width="230.853" height="47" fill="white"/>
</clipPath>
</defs>
</svg>
