<svg width="100" height="93" viewBox="0 0 100 93" fill="none" xmlns="http://www.w3.org/2000/svg">
<path fill-rule="evenodd" clip-rule="evenodd" d="M78.7812 75.6562L39.8094 87.275C39.5378 87.3573 39.2496 87.3678 38.9728 87.3054C38.696 87.2431 38.4401 87.11 38.2301 86.9192C38.0201 86.7284 37.8632 86.4864 37.7747 86.2169C37.6861 85.9473 37.669 85.6594 37.725 85.3812L51.65 18.1594C51.7089 17.8848 51.8523 17.6355 52.0602 17.4467C52.268 17.2578 52.5298 17.1388 52.8088 17.1064C53.0877 17.074 53.3698 17.1298 53.6155 17.2659C53.8611 17.4021 54.0578 17.6118 54.1781 17.8656L79.9562 73.0562C80.0718 73.3016 80.1328 73.5692 80.1349 73.8404C80.137 74.1117 80.0803 74.3801 79.9686 74.6273C79.8569 74.8745 79.6929 75.0945 79.4879 75.2721C79.2829 75.4498 79.0418 75.5808 78.7812 75.6562ZM85.4656 72.9125L55.625 9.00935C55.2582 8.22116 54.6836 7.5478 53.9629 7.06164C53.2421 6.57547 52.4026 6.29487 51.5344 6.24998C50.6661 6.19026 49.7982 6.37135 49.0263 6.77331C48.2543 7.17527 47.6083 7.7825 47.1594 8.5281L14.8 61.4C14.3064 62.2003 14.0496 63.1241 14.0596 64.0644C14.0696 65.0046 14.3458 65.9228 14.8562 66.7125L30.6812 91.4281C31.2775 92.3518 32.157 93.0574 33.188 93.4394C34.2189 93.8213 35.3458 93.859 36.4 93.5469L82.3375 79.85C83.0313 79.6479 83.6731 79.2978 84.2186 78.8239C84.7641 78.3499 85.2004 77.7633 85.4974 77.1045C85.7944 76.4458 85.9451 75.7304 85.9391 75.0078C85.933 74.2852 85.7704 73.5725 85.4625 72.9187L85.4656 72.9125Z" fill="#1A1A1A"/>
</svg>
