<svg width="100" height="90" viewBox="0 0 100 90" fill="none" xmlns="http://www.w3.org/2000/svg">
<g clip-path="url(#clip0_19_11)">
<path d="M61.7109 55.659L59.7929 58.9899C59.509 59.4828 59.1002 59.8922 58.6076 60.1769C58.1151 60.4615 57.5563 60.6114 56.9875 60.6114H42.2929C41.7241 60.6114 41.1652 60.4615 40.6727 60.1769C40.1802 59.8922 39.7714 59.4828 39.4875 58.9899L37.5691 55.659H61.7109ZM67.0808 46.3348L63.6988 52.2074H35.5816L32.1996 46.3348H67.0808ZM63.823 37.2168L67.0863 42.8832H32.1941L35.4574 37.2168H63.823ZM56.9871 28.5973C57.556 28.5972 58.1149 28.747 58.6075 29.0317C59.1001 29.3164 59.5089 29.7258 59.7929 30.2188L61.8351 33.7653H37.4453L39.4878 30.2188C39.7718 29.7259 40.1806 29.3164 40.6731 29.0318C41.1656 28.7471 41.7245 28.5973 42.2933 28.5973H56.9871Z" fill="#00435B"/>
<path d="M20.9074 27.0514C19.2797 19.1584 18.9301 13.1045 19.9824 8.70884C20.6082 6.09438 21.752 3.96157 23.4918 2.42251C25.3285 0.797899 27.6504 0.000633055 30.2598 0.000633055C34.5637 0.000633055 39.0887 1.96352 43.9238 5.69204C45.8965 7.21313 47.9434 9.04634 50.0692 11.1928C50.2387 10.9752 50.4297 10.7698 50.643 10.5795C56.6531 5.22407 61.7133 1.89595 66.0414 0.613133C68.6149 -0.150148 71.0309 -0.222804 73.2309 0.517821C75.5535 1.29907 77.4039 2.91509 78.7098 5.17798C80.8645 8.91274 81.4324 13.8202 80.6293 19.8799C80.302 22.3499 79.7422 25.0401 78.9512 27.9553C79.2496 27.9913 79.5488 28.0577 79.8449 28.1557C87.4703 30.6831 92.8703 33.4002 96.1395 36.5061C98.0848 38.3538 99.3547 40.4108 99.8141 42.6881C100.298 45.0916 99.8258 47.5022 98.5219 49.7635C96.3711 53.4932 92.4164 56.4342 86.7828 58.7639C84.5211 59.6995 81.9613 60.5467 79.1016 61.3088C79.232 61.6034 79.3336 61.9163 79.4012 62.2444C81.0289 70.1373 81.3781 76.1913 80.3262 80.587C79.7004 83.2014 78.5563 85.3342 76.8164 86.8733C74.9801 88.4979 72.6578 89.2952 70.0488 89.2952C65.7445 89.2952 61.2199 87.3323 56.3848 83.6038C54.391 82.0663 52.3215 80.2104 50.1711 78.0342C49.9447 78.388 49.6708 78.709 49.357 78.9881C43.3469 84.3444 38.2867 87.6717 33.9586 88.9549C31.3852 89.7182 28.9692 89.7909 26.7692 89.0502C24.4465 88.269 22.5961 86.653 21.2903 84.3901C19.1356 80.6553 18.5676 75.7479 19.3707 69.6881C19.7102 67.1291 20.2988 64.3331 21.1356 61.2956C20.8021 61.2617 20.4733 61.1914 20.1551 61.0858C12.5297 58.5584 7.12971 55.8413 3.86057 52.7354C1.91525 50.8877 0.645331 48.8307 0.185956 46.5534C-0.298419 44.1499 0.174237 41.7389 1.47814 39.4776C3.62892 35.7483 7.58361 32.8069 13.2172 30.4776C15.5465 29.5139 18.1914 28.6444 21.1547 27.8647C21.0474 27.6018 20.9647 27.3295 20.9074 27.0514Z" fill="#002B3B"/>
<path d="M74.0809 63.0207C74.4448 62.9562 74.8196 63.0342 75.1276 63.2386C75.4356 63.4429 75.6532 63.758 75.7352 64.1184L75.7442 64.1621L75.825 64.582C78.4461 78.3617 76.5996 85.252 70.286 85.252C64.109 85.252 56.2453 79.3727 46.6953 67.6141C46.5257 67.4051 46.418 67.1527 46.3846 66.8856C46.3512 66.6185 46.3934 66.3474 46.5064 66.103C46.6194 65.8587 46.7987 65.651 47.0238 65.5034C47.249 65.3559 47.511 65.2744 47.7801 65.2684H47.8246L48.3278 65.2719C52.3465 65.2937 56.2531 65.1535 60.0481 64.8516C64.5274 64.4949 69.2051 63.8848 74.0809 63.0207ZM30.7211 52.6043L30.7453 52.6453L30.9977 53.0855C33.0199 56.6012 35.1266 59.9379 37.318 63.0961C39.8992 66.8148 42.8016 70.5797 46.025 74.3906C46.2643 74.6734 46.3853 75.0376 46.3628 75.4074C46.3403 75.7772 46.1761 76.124 45.9043 76.3758L45.868 76.4082L45.5438 76.6875C34.877 85.827 27.9442 87.6516 24.7453 82.1609C21.6137 76.7871 22.7492 67.0152 28.1512 52.8457C28.2468 52.5947 28.4108 52.3754 28.6247 52.2128C28.8385 52.0502 29.0936 51.9506 29.361 51.9255C29.6285 51.9004 29.8977 51.9507 30.138 52.0706C30.3784 52.1906 30.5804 52.3755 30.7211 52.6043ZM79.4934 32.2707L79.5371 32.2852L79.9387 32.4234C93.1047 37.0035 98.1067 42.0367 94.9449 47.523C91.8528 52.8887 82.8629 56.7957 67.9758 59.2434C67.706 59.2878 67.4291 59.2544 67.1776 59.1471C66.9261 59.0398 66.7104 58.863 66.5557 58.6375C66.401 58.412 66.3138 58.1471 66.3043 57.8739C66.2948 57.6006 66.3634 57.3302 66.502 57.0945C68.634 53.4672 70.5547 49.8586 72.2633 46.2676C74.2008 42.1953 76.0192 37.8238 77.7184 33.1543C77.8418 32.8149 78.0884 32.5343 78.4091 32.3682C78.7298 32.2021 79.1012 32.1627 79.4496 32.2578L79.4934 32.2707ZM32.9867 29.9648C33.1497 30.0605 33.2922 30.1874 33.4061 30.3382C33.52 30.489 33.6031 30.6607 33.6506 30.8436C33.6981 31.0265 33.7091 31.217 33.683 31.4041C33.6569 31.5913 33.5942 31.7715 33.4985 31.9344C31.3656 35.5613 29.4453 39.1703 27.7367 42.7613C25.7992 46.8336 23.9809 51.2047 22.2817 55.8746C22.1555 56.2214 21.901 56.5064 21.5706 56.6709C21.2403 56.8353 20.8594 56.8666 20.5067 56.7582L20.4629 56.7438L20.0613 56.6051C6.89533 52.0254 1.89338 46.9918 5.0551 41.5059C8.14728 36.1398 17.1371 32.2332 32.0242 29.7855C32.3563 29.7309 32.6969 29.7941 32.9867 29.9648ZM75.2547 7.40703C78.3863 12.7813 77.2508 22.5531 71.8488 36.7227C71.7532 36.9737 71.5892 37.1929 71.3754 37.3556C71.1615 37.5182 70.9065 37.6177 70.639 37.6428C70.3715 37.668 70.1024 37.6177 69.862 37.4977C69.6216 37.3778 69.4196 37.1929 69.2789 36.9641L69.2547 36.923L69.0024 36.4828C66.9801 32.9672 64.8735 29.6305 62.6821 26.4723C60.1008 22.7535 57.1985 18.9887 53.975 15.1777C53.7358 14.8949 53.6148 14.5307 53.6373 14.161C53.6597 13.7912 53.824 13.4443 54.0957 13.1926L54.132 13.1602L54.4563 12.8809C65.1231 3.74141 72.0559 1.9168 75.2547 7.40703ZM30.2539 4.13672C36.4313 4.13672 44.2949 10.0156 53.8445 21.7742C54.0142 21.9832 54.1219 22.2356 54.1552 22.5027C54.1886 22.7698 54.1464 23.0409 54.0335 23.2853C53.9205 23.5296 53.7412 23.7373 53.5161 23.8849C53.2909 24.0324 53.0289 24.1138 52.7598 24.1199H52.7153L52.2121 24.1168C48.1938 24.0949 44.2867 24.2352 40.4922 24.5371C36.0125 24.8937 31.3348 25.5039 26.459 26.368C26.0951 26.4324 25.7204 26.3543 25.4125 26.1499C25.1046 25.9456 24.8871 25.6306 24.8051 25.2703L24.7957 25.2262L24.7149 24.8066C22.0938 11.0266 23.9399 4.13672 30.2539 4.13672Z" fill="#FF4154"/>
<path d="M43.4746 28.7773H55.8089C56.6951 28.7773 57.5656 29.0111 58.3325 29.4552C59.0994 29.8994 59.7355 30.538 60.1765 31.3066L66.3699 42.098C66.8077 42.8609 67.038 43.7251 67.038 44.6047C67.038 45.4842 66.8077 46.3485 66.3699 47.1113L60.1765 57.9027C59.7354 58.6713 59.0993 59.3099 58.3325 59.754C57.5656 60.1981 56.6951 60.432 55.8089 60.432H43.4746C41.6707 60.432 40.0046 59.4672 39.1066 57.9027L32.914 47.1113C32.4762 46.3485 32.2458 45.4842 32.2458 44.6047C32.2458 43.7251 32.4762 42.8609 32.914 42.098L39.107 31.3066C39.5481 30.538 40.1843 29.8994 40.9512 29.4553C41.7182 29.0112 42.5883 28.7773 43.4746 28.7773ZM53.9292 32.0344C55.7339 32.0344 57.4011 33.0004 58.2984 34.566L62.6171 42.1004C63.0541 42.8627 63.284 43.726 63.284 44.6047C63.284 45.4833 63.0541 46.3467 62.6171 47.109L58.2984 54.6434C57.8574 55.4125 57.2212 56.0517 56.454 56.4962C55.6868 56.9406 54.8159 57.1747 53.9292 57.1746H45.355C43.5503 57.1746 41.8832 56.209 40.9859 54.6434L36.6671 47.109C36.2302 46.3467 36.0003 45.4833 36.0003 44.6047C36.0003 43.726 36.2302 42.8627 36.6671 42.1004L40.9859 34.566C41.4268 33.7969 42.063 33.1578 42.8301 32.7133C43.5972 32.2689 44.4681 32.0348 45.3546 32.0348L53.9292 32.0344ZM51.9031 35.5969H47.3812C46.4953 35.5968 45.6252 35.8305 44.8585 36.2742C44.0918 36.718 43.4557 37.3561 43.0144 38.1242L40.7324 42.0957C40.2937 42.8591 40.0629 43.7242 40.0629 44.6047C40.0629 45.4852 40.2937 46.3503 40.7324 47.1137L43.0144 51.0856C43.4557 51.8537 44.0918 52.4918 44.8585 52.9355C45.6252 53.3793 46.4953 53.6129 47.3812 53.6129H51.9031C53.7062 53.6129 55.3718 52.6488 56.2699 51.0856L58.5519 47.1137C58.9906 46.3503 59.2214 45.4852 59.2214 44.6047C59.2214 43.7242 58.9906 42.8591 58.5519 42.0957L56.2699 38.1238C55.8286 37.3557 55.1925 36.7176 54.4258 36.2738C53.6591 35.8301 52.7889 35.5968 51.9031 35.5969ZM49.9523 39.0063C51.7539 39.0063 53.4183 39.9688 54.3167 41.5297L54.6406 42.0922C55.0804 42.8564 55.3119 43.7226 55.3119 44.6043C55.3119 45.486 55.0804 46.3522 54.6406 47.1164L54.3167 47.6789C53.8752 48.446 53.2392 49.0831 52.473 49.5261C51.7068 49.9691 50.8374 50.2024 49.9523 50.2023H49.332C48.4469 50.2024 47.5775 49.9691 46.8113 49.5261C46.045 49.0831 45.4091 48.446 44.9675 47.6789L44.6437 47.1164C44.2039 46.3522 43.9724 45.486 43.9724 44.6043C43.9724 43.7226 44.2039 42.8564 44.6437 42.0922L44.9675 41.5297C45.4091 40.7626 46.045 40.1255 46.8113 39.6825C47.5775 39.2395 48.4469 39.0062 49.332 39.0063H49.9523ZM49.6429 42.3652C49.2495 42.3651 48.863 42.4684 48.5223 42.6649C48.1815 42.8615 47.8984 43.1442 47.7015 43.4848C47.5049 43.8251 47.4014 44.2112 47.4014 44.6043C47.4014 44.9974 47.5049 45.3835 47.7015 45.7238C47.8983 46.0644 48.1812 46.3472 48.5219 46.5439C48.8626 46.7405 49.249 46.844 49.6423 46.844C50.0357 46.844 50.4221 46.7405 50.7628 46.5439C51.1035 46.3472 51.3864 46.0644 51.5832 45.7238C51.7798 45.3835 51.8833 44.9974 51.8833 44.6043C51.8833 44.2112 51.7798 43.8251 51.5832 43.4848C51.3864 43.1443 51.1036 42.8616 50.763 42.6651C50.4224 42.4686 50.0361 42.3652 49.6429 42.3652ZM31.4753 44.6043H35.5066Z" fill="#FFD94C"/>
</g>
<defs>
<clipPath id="clip0_19_11">
<rect width="100" height="89.8438" fill="white"/>
</clipPath>
</defs>
</svg>
