<svg width="100" height="100" viewBox="0 0 100 100" fill="none" xmlns="http://www.w3.org/2000/svg">
<g clip-path="url(#clip0_19_8)">
<path d="M77.375 39.3086C74.5265 38.4117 73.0562 38.7141 70.0695 38.3867C65.4523 37.8828 63.6125 36.075 62.832 31.4235C62.3953 28.8266 62.9109 25.0242 61.7961 22.6703C59.664 18.1813 54.675 16.168 49.6633 17.3172C45.4312 18.2891 41.9101 22.525 41.7148 26.8735C41.4922 31.8383 44.3164 36.075 49.1656 37.5375C51.4703 38.2328 53.9179 38.5828 56.3242 38.7602C60.7375 39.0828 61.0765 41.5399 62.2695 43.5625C63.0226 44.8375 63.7515 46.0938 63.7515 49.8961C63.7515 53.6985 63.0179 54.9539 62.2703 56.2289C61.0765 58.2469 59.6039 59.5688 55.1906 59.8953C52.7843 60.0735 50.3312 60.4235 48.0328 61.1196C43.1828 62.586 40.3586 66.8172 40.5812 71.7828C40.7765 76.1313 44.2976 80.3672 48.5297 81.3391C53.5414 82.4922 58.5304 80.475 60.6625 75.986C61.782 73.6321 62.3953 70.9649 62.832 68.3688C63.6172 63.7164 65.457 61.9086 70.0695 61.4039C73.0562 61.0774 76.1476 61.4039 78.9469 59.8117C81.9039 57.6477 84.5469 54.3977 84.5469 49.8961C84.5469 45.393 81.6992 40.6727 77.375 39.3086Z" fill="#F44250"/>
<path d="M30 60.4476C24.1797 60.4476 19.4312 55.6836 19.4312 49.8422C19.4312 44.0016 24.1789 39.2375 29.9992 39.2375C35.8195 39.2375 40.5679 44.0016 40.5679 49.8422C40.5679 55.6781 35.8156 60.4476 29.9992 60.4476H30ZM10.5312 82C4.71872 81.9859 -0.0140923 77.2031 -2.97784e-05 71.357C0.0140327 65.5211 4.78044 60.7711 10.6054 60.7898C16.4211 60.8039 21.1547 65.5867 21.1367 71.432C21.1226 77.2633 16.3554 82.0141 10.5312 82ZM89.0562 82C83.2265 82.032 78.4422 77.3008 78.4086 71.4742C78.3765 65.6242 83.0914 60.8226 88.8976 60.7898C94.7273 60.757 99.5125 65.4883 99.5453 71.3148C99.5773 77.1601 94.8625 81.9672 89.0562 82Z" fill="#121212"/>
</g>
<defs>
<clipPath id="clip0_19_8">
<rect width="100" height="100" fill="white"/>
</clipPath>
</defs>
</svg>
