<svg width="45" height="18" viewBox="0 0 45 18" fill="none" xmlns="http://www.w3.org/2000/svg">
<path d="M11.58 4.44C11.74 4.44 11.9067 4.45333 12.08 4.48C12.2533 4.50667 12.4133 4.55333 12.56 4.62C12.7067 4.68667 12.8267 4.78 12.92 4.9C13.0267 5.02 13.08 5.18 13.08 5.38C13.08 5.56667 13.0267 5.72 12.92 5.84C12.8133 5.96 12.68 6.05333 12.52 6.12C12.3733 6.18667 12.2067 6.23333 12.02 6.26C11.8467 6.28667 11.6933 6.3 11.56 6.3H4.16V4.44H11.58ZM11.56 7.4C11.88 7.4 12.1933 7.36667 12.5 7.3C12.82 7.22 13.1067 7.1 13.36 6.94C13.6133 6.78 13.8133 6.57333 13.96 6.32C14.12 6.05333 14.2 5.74 14.2 5.38C14.2 5.00667 14.1267 4.68667 13.98 4.42C13.8333 4.15333 13.6333 3.94 13.38 3.78C13.14 3.62 12.86 3.50667 12.54 3.44C12.2333 3.36 11.9133 3.32 11.58 3.32H3.06V7.4H11.56ZM13.38 8.3C13.1933 8.40667 12.9867 8.48667 12.76 8.54C12.5333 8.59333 12.32 8.64667 12.12 8.7C12.8667 9.58 13.6133 10.4467 14.36 11.3C15.12 12.1533 15.88 13.02 16.64 13.9H15.02L10.4 8.6H3.06V13.9H1.82V2.1H11.58C12.1267 2.1 12.6333 2.16 13.1 2.28C13.58 2.4 13.9867 2.59333 14.32 2.86C14.6667 3.12667 14.9333 3.46667 15.12 3.88C15.32 4.29333 15.42 4.79333 15.42 5.38C15.42 6.11333 15.2533 6.72 14.92 7.2C14.5867 7.66667 14.08 8.03333 13.4 8.3H13.38ZM16.54 5.38C16.54 4.62 16.42 3.96667 16.18 3.42C15.94 2.86 15.6 2.4 15.16 2.04C14.72 1.68 14.1933 1.41333 13.58 1.24C12.98 1.06667 12.3133 0.979999 11.58 0.979999H0.74V15.02H4.16V9.7H9.88L14.48 15.02H19.08L14.04 9.24C15.7067 8.50667 16.54 7.22 16.54 5.38ZM0.24 15.52V0.48H11.58C12.1 0.48 12.6 0.52 13.08 0.599999C13.56 0.666666 14.04 0.813333 14.52 1.04C15.0133 1.26667 15.52 1.59333 16.04 2.02C16.5733 2.44667 17.14 3.01333 17.74 3.72C18.1267 4.10667 18.4267 4.62667 18.64 5.28C18.8667 5.92 18.98 6.62 18.98 7.38C18.98 8.26 18.7867 9.04 18.4 9.72C18.0267 10.4 17.48 10.9533 16.76 11.38C17.1733 11.86 17.6067 12.36 18.06 12.88C18.5133 13.4 18.9667 13.9267 19.42 14.46C19.8733 14.98 20.32 15.4933 20.76 16C21.2133 16.52 21.64 17.0067 22.04 17.46H16.28L14.26 15.52L11.34 12.14H6.6V17.46H2.3L0.24 15.52ZM24.9455 2.1H25.9855L32.8855 12.34C34.0188 10.6067 35.1588 8.89333 36.3055 7.2C37.4655 5.50667 38.6321 3.80667 39.8055 2.1H40.8455V13.9H39.6055V4.62L33.3855 13.9H32.4055L26.1855 4.64V13.9H24.9455V2.1ZM27.2855 8.28L31.7855 15.02H33.9855L38.5055 8.26V15.02H41.9455V0.979999H39.1855L32.8655 10.34L26.5855 0.979999H23.8455V15.02H27.2855V8.28ZM28.8055 2.54L33.1455 9.04L38.9455 0.48H42.4455L44.3855 2.54V17.46H40.0655L38.0055 15.52V14.78L36.2055 17.46H33.5655L31.5455 15.52L29.7255 12.8V17.46H25.4055L23.3455 15.52V0.48H26.8255L28.8055 2.54Z" fill="black"/>
</svg>
