<svg width="232" height="47" viewBox="0 0 232 47" fill="none" xmlns="http://www.w3.org/2000/svg">
<path d="M172.391 16.7148V46.0148H162.953V12.1265L172.391 16.7148Z" fill="#B5B5B5"/>
<path d="M38.8044 40.5741L45.8838 46.7356L75.708 31.2008L72.6272 23.7938L38.8044 40.5741ZM162.952 21.6964L186.943 9.2423L182.879 2.22845L162.953 12.1265L162.952 21.6964Z" fill="#828282"/>
<path d="M95.438 14.4208V46.0148H86.3923V0.983362L95.438 14.4208ZM38.8044 40.5736L45.8838 46.7351L59.5178 12.6502L55.126 0.98291L38.8044 40.5736Z" fill="#B5B5B5"/>
<path d="M55.1256 0.983362H64.4338L81.6729 46.0148H72.103L55.1256 0.983362ZM96.8146 0.983362L116.676 31.725V46.0143L86.3923 0.98291L96.8146 0.983362ZM133.718 0.983362H143.091V46.0148H133.718V0.983362ZM162.953 9.24226H148.532V0.983362H182.158L186.943 9.24226H172.391H162.953Z" fill="#515151"/>
<path d="M214.67 28.9068V46.0148H205.362V28.9068" fill="#828282"/>
<path d="M221.093 0.983398L205.362 28.9068H214.67L230.991 0.983398H221.093Z" fill="#515151"/>
<path d="M205.362 28.9068L189.106 0.983398H199.332L210.278 20.1232L205.362 28.9068Z" fill="#B5B5B5"/>
<path d="M3.86754 6.22708C3.86754 12.4546 7.73465 16.1902 15.4693 18.1569L23.6627 20.0577C31.0042 21.7619 35.4615 25.9571 35.4615 32.7739C35.527 35.7236 34.5441 38.6078 32.7739 40.9673C32.7739 34.1505 29.2344 30.48 20.7785 28.2511L12.7162 26.4163C6.22748 24.9733 1.24548 21.4989 1.24548 14.0923C1.24548 11.2737 2.16289 8.45506 3.86754 6.22662" fill="#515151"/>
<path d="M116.676 29.431V0.983354H125.721V46.0148H116.676V29.431ZM27.7268 31.0697C31.2008 33.2986 32.7739 36.4449 32.7739 40.9677C29.8242 44.7038 24.7771 46.7356 18.8122 46.7356C8.78356 46.7356 1.63911 41.754 0.131042 33.1675H9.76649C11.012 37.1001 14.2893 38.9354 18.7467 38.9354C24.0563 39.0009 27.6613 36.1168 27.7268 31.0697ZM3.86754 6.16149C6.68573 2.49097 11.5367 0.262085 17.4352 0.262085C27.7264 0.262085 33.6258 5.70279 35.1334 13.3064H25.826C24.7776 10.2912 22.2206 7.93122 17.5667 7.93122C12.5196 7.99675 9.11121 10.8809 8.91462 15.4693C5.53695 13.6065 3.73603 9.96307 3.86754 6.16149Z" fill="#B5B5B5"/>
</svg>
