<svg width="100" height="75" viewBox="0 0 100 75" fill="none" xmlns="http://www.w3.org/2000/svg">
<g clip-path="url(#clip0_22_56)">
<path d="M86.0472 43.1695C82.5683 43.1875 79.5445 44.0254 77.0129 45.264C76.0836 43.4242 75.1547 41.7851 74.991 40.5828C74.8086 39.1805 74.5902 38.3242 74.8086 36.6484C75.0273 34.9726 76.0109 32.5863 75.9926 32.4043C75.9746 32.2223 75.7738 31.366 73.7703 31.348C71.7668 31.3297 70.0363 31.7305 69.8359 32.2586C69.6355 32.7867 69.2531 33.989 68.998 35.2273C68.6519 37.0492 64.991 43.5515 62.8965 46.9578C62.2222 45.6285 61.6394 44.4625 61.5117 43.5336C61.3297 42.1312 61.1109 41.275 61.3297 39.5992C61.5484 37.9234 62.532 35.5375 62.5137 35.3551C62.4953 35.173 62.2949 34.3168 60.2914 34.2988C58.2875 34.2805 56.557 34.6812 56.357 35.2094C56.1566 35.7379 55.9379 36.9762 55.5191 38.1785C55.1 39.3808 50.2367 50.2371 48.9617 53.0418C48.4464 54.177 47.9059 55.3006 47.3406 56.4117C47.3406 56.4117 47.3222 56.4664 47.2676 56.5574C47.0899 56.9058 46.9079 57.2519 46.7215 57.5957V57.6137C46.448 58.1058 46.1566 58.5609 46.0109 58.5609C45.9015 58.5609 45.7012 57.2496 46.0472 55.4644C46.7758 51.6941 48.5062 45.8289 48.4883 45.6285C48.4883 45.5191 48.816 44.4992 47.359 43.9707C45.9379 43.4426 45.4281 44.3168 45.3004 44.3168C45.173 44.3168 45.0816 44.6266 45.0816 44.6266C45.0816 44.6266 46.6668 38.0328 42.0582 38.0328C39.1805 38.0328 35.2094 41.184 33.2422 44.0254C31.0059 45.2423 28.7715 46.4628 26.539 47.6867C25.4648 48.2879 24.3535 48.889 23.3152 49.4535C23.2422 49.3808 23.1695 49.2894 23.0965 49.2168C17.5226 43.2605 7.21326 39.0527 7.65037 31.0566C7.81443 28.1422 8.816 20.4918 27.45 11.2023C42.7867 3.64296 54.991 5.73749 57.1039 10.3824C60.1273 17.0129 50.5648 29.3262 34.7176 31.1109C28.6703 31.7851 25.5008 29.4535 24.6996 28.5793C23.8617 27.6683 23.734 27.6137 23.4242 27.7961C22.9144 28.0695 23.2422 28.889 23.4242 29.3625C23.898 30.6008 25.8469 32.7867 29.1437 33.8617C32.0582 34.8086 39.1437 35.3371 47.723 32.0219C57.3222 28.3058 64.8269 17.9781 62.623 9.32616C60.4187 0.546471 45.8469 -2.34962 32.0582 2.54999C23.8617 5.46483 14.9726 10.0547 8.57928 16.0293C0.983573 23.1328 -0.21877 29.3078 0.273027 31.8945C2.04021 41.0746 14.6996 47.0492 19.7633 51.4754C19.5082 51.6211 19.2711 51.7488 19.0711 51.8582C16.539 53.1148 6.88514 58.1601 4.48084 63.4972C1.74881 69.5445 4.91834 73.8801 7.01287 74.4625C13.5156 76.266 20.2004 73.0238 23.7887 67.6683C27.3769 62.3133 26.9398 55.3551 25.2824 52.1676C25.264 52.1312 25.2461 52.0945 25.2094 52.0582C25.8652 51.6758 26.539 51.275 27.1949 50.8926C28.4003 50.18 29.621 49.4936 30.8562 48.834C30.2367 50.5281 29.7812 52.55 29.5629 55.4644C29.2894 58.889 30.6918 63.3332 32.5316 65.0816C33.3515 65.8472 34.3168 65.8652 34.9363 65.8652C37.0855 65.8652 38.0512 64.0801 39.1258 61.9672C40.4371 59.3808 41.6211 56.3754 41.6211 56.3754C41.6211 56.3754 40.1457 64.4992 44.1531 64.4992C45.6101 64.4992 47.0855 62.6047 47.7414 61.6394V61.6574C47.7414 61.6574 47.7777 61.6027 47.8508 61.4754C47.9965 61.2387 48.0875 61.0926 48.0875 61.0926V61.0566C48.6703 60.0363 49.982 57.723 51.9308 53.8797C54.4445 48.9254 56.8672 42.7324 56.8672 42.7324C56.8672 42.7324 57.0859 44.2441 57.8324 46.7578C58.2699 48.2332 59.1801 49.8543 59.909 51.4207C59.3262 52.2406 58.9617 52.6957 58.9617 52.6957L58.9801 52.714C58.5062 53.3332 57.9965 54.007 57.4316 54.6633C55.4461 57.0308 53.0785 59.7453 52.7504 60.5281C52.3676 61.457 52.459 62.1312 53.1879 62.6777C53.716 63.0785 54.6629 63.1328 55.6285 63.0785C57.4137 62.9508 58.6703 62.5137 59.2894 62.2406C60.2551 61.8945 61.3844 61.366 62.4406 60.5828C64.3898 59.1437 65.5734 57.0855 65.4644 54.3719C65.4097 52.8781 64.9179 51.3844 64.3168 49.9816C64.4992 49.7269 64.6629 49.4719 64.8453 49.2168C67.9234 44.7176 70.3097 39.7812 70.3097 39.7812C70.3097 39.7812 70.5285 41.293 71.275 43.807C71.6394 45.082 72.3863 46.4664 73.0418 47.814C70.1457 50.1641 68.3605 52.8961 67.723 54.6812C66.5758 57.9965 67.4679 59.4898 69.1621 59.8359C69.9269 60 71.0199 59.6355 71.8215 59.2894C72.8414 58.9617 74.0437 58.3973 75.1914 57.559C77.1406 56.1203 79.0164 54.1164 78.907 51.4027C78.8523 50.164 78.5246 48.9433 78.0691 47.7594C80.5281 46.7398 83.6976 46.175 87.741 46.6484C96.4117 47.6683 98.1238 53.0781 97.7957 55.3555C97.4679 57.632 95.6465 58.8707 95.0457 59.2531C94.4441 59.6359 94.2441 59.7633 94.2988 60.0363C94.3715 60.4371 94.6629 60.4191 95.173 60.3461C95.8836 60.2187 99.7269 58.5062 99.8906 54.3168C100.164 48.9617 95.0637 43.1148 86.0472 43.1695ZM19.1621 65.7195C16.284 68.8523 12.2769 70.0363 10.5465 69.0348C8.68865 67.9598 9.41717 63.3332 12.9508 60.0183C15.1 57.9965 17.8687 56.1199 19.7086 54.9726C20.1273 54.7176 20.7469 54.3535 21.4937 53.898C21.6211 53.825 21.6941 53.7887 21.6941 53.7887L22.1312 53.5152C23.4242 58.2512 22.1859 62.4226 19.1621 65.7195ZM40.1094 51.4754C39.1074 53.9164 37.0129 60.164 35.7379 59.818C34.6449 59.5265 33.9707 54.7906 35.5191 50.1094C36.3023 47.7594 37.9597 44.9543 38.9254 43.8617C40.4918 42.1129 42.2222 41.5297 42.641 42.2406C43.1695 43.1695 40.7285 49.9453 40.1094 51.4754ZM57.3953 59.7449C56.9762 59.9637 56.5758 60.1094 56.3933 60C56.266 59.9269 56.5758 59.6355 56.5758 59.6355C56.5758 59.6355 58.7433 57.3043 59.5992 56.2476C60.0914 55.6285 60.6738 54.9 61.2933 54.0801V54.3168C61.2933 57.1039 58.5972 58.9801 57.3949 59.7449M70.7281 56.7031C70.4183 56.4844 70.473 55.7558 71.5113 53.4789C71.9121 52.5863 72.859 51.093 74.4804 49.6539C74.6625 50.2367 74.7902 50.8016 74.7719 51.3297C74.7535 54.8453 72.2402 56.1566 70.7281 56.7031Z" fill="#1A1A1A"/>
</g>
<defs>
<clipPath id="clip0_22_56">
<rect width="100" height="75" fill="white"/>
</clipPath>
</defs>
</svg>
