<svg width="100" height="100" viewBox="0 0 100 100" fill="none" xmlns="http://www.w3.org/2000/svg">
<g clip-path="url(#clip0_22_52)">
<path d="M62.0023 46.6836L41.9758 53.2227L24.5539 60.9117L19.6789 62.1992C18.3923 63.428 17.0749 64.6242 15.7281 65.7867C14.1844 67.118 12.7469 68.3297 11.6422 69.207C10.4156 70.1758 8.59921 71.9922 7.67578 73.143C6.29765 74.8687 5.20859 76.7 4.73906 78.1078C3.90624 80.6508 4.31562 83.2242 5.91953 85.6008C7.9789 88.6281 12.0805 91.7164 16.8633 93.8195C19.3008 94.8953 23.4023 96.2727 26.4914 97.0437C31.6219 98.3461 41.5523 99.7547 47.0164 99.9656C48.1211 100.012 49.6047 100.012 49.6648 99.9656C49.7867 99.8898 50.6344 98.2703 51.6187 96.2578C54.9781 89.4 57.4 82.9672 58.718 77.4719C59.5047 74.1422 60.125 69.707 60.5336 64.4547C60.6398 62.9859 60.6851 58.0664 60.5945 56.4016C60.4578 53.6773 60.2156 51.4672 59.8367 49.3031C59.7766 48.9844 59.7617 48.6969 59.7922 48.6812C59.8523 48.6367 60.0344 48.5758 62.5016 47.8641L62.0023 46.6836ZM57.4312 49.3633C57.6133 49.3633 58.0969 54.0094 58.218 56.9461C58.2484 57.5672 58.2336 57.9758 58.2023 57.9758C58.082 57.9758 55.6445 56.5383 53.9047 55.4477C52.3906 54.4945 49.5141 52.5875 49.0609 52.2234C48.9086 52.118 48.9234 52.1023 50.1648 51.6789C52.2687 50.968 57.2648 49.3625 57.4305 49.3625L57.4312 49.3633ZM47.2281 52.7227C47.3648 52.7227 47.7125 52.9195 48.5453 53.4344C51.6633 55.3875 55.9023 57.7492 57.7187 58.5359C58.2781 58.7781 58.3391 58.6867 57.0523 59.5656C54.2976 61.4422 50.8617 63.2891 46.6539 65.1508C45.9117 65.4836 45.2906 65.7406 45.2758 65.7406C45.2453 65.7406 45.3367 65.3625 45.4578 64.9086C46.4711 61.1391 47.0469 57.325 47.0773 54.2672C47.093 52.7531 47.093 52.7531 47.2289 52.7078C47.1977 52.7234 47.2133 52.7234 47.2289 52.7234L47.2281 52.7227ZM45.125 53.525C45.2156 53.6164 45.1547 57.007 45.0336 57.9305C44.7623 60.1616 44.2965 62.3648 43.6414 64.5148C43.475 65.075 43.3234 65.5445 43.293 65.5742C43.232 65.65 41.1586 63.6211 40.4773 62.8344C39.2969 61.4719 38.3734 60.1102 37.6922 58.7781C37.3445 58.0969 36.7992 56.7648 36.8445 56.7195C37.0867 56.5523 45.0641 53.4648 45.125 53.525ZM35.225 57.4156C35.2398 57.4156 35.2547 57.4156 35.2703 57.4305C35.3008 57.4609 35.407 57.7039 35.4977 57.9758C35.982 59.2922 37.0711 61.2297 38.0102 62.4711C39.0398 63.8336 40.3867 65.2875 41.507 66.2406C41.8703 66.543 42.2031 66.8305 42.2484 66.8758C42.3391 66.9672 42.3695 66.9516 39.9016 67.8906C37.0422 68.9805 33.9234 70.0703 30.3508 71.2203C29.4974 71.4955 28.6448 71.7731 27.793 72.0531C27.6562 72.0984 27.7023 72.0219 28.0953 71.4016C29.8664 68.6328 32.5602 63.1984 34.0742 59.3531C34.332 58.6867 34.5898 58.0211 34.6352 57.8695C34.6953 57.6578 34.7711 57.582 34.9672 57.4758C35.0734 57.4461 35.1797 57.4156 35.225 57.4156ZM32.1977 58.6719C32.243 58.7023 31.4711 60.3219 30.7141 61.8047C29.2453 64.6664 27.6414 67.482 25.4922 70.9031C25.1281 71.493 24.7812 72.0383 24.7344 72.0984C24.6594 72.2047 24.6297 72.1742 24.3867 71.7055C23.8719 70.6906 23.4484 69.3891 23.2211 68.193C22.9945 67.0125 23.0398 64.9539 23.2977 63.682C23.493 62.7445 23.4789 62.7594 23.9328 62.532C25.8703 61.5477 32.1367 58.6117 32.1977 58.6719ZM58.3086 59.732V60.3672C58.3086 63.743 57.9453 68.375 57.4156 71.75C57.325 72.3406 57.2492 72.825 57.2344 72.8406C57.2344 72.8406 56.7953 72.7195 56.2812 72.568C53.8687 71.802 51.5364 70.8033 49.3172 69.5859C47.8484 68.7836 45.7156 67.4664 45.7758 67.4062C45.7906 67.3906 46.4266 67.0578 47.168 66.6641C50.1352 65.1203 52.9805 63.4555 55.4484 61.8047C56.3719 61.1844 57.7641 60.1859 58.0664 59.9133L58.3086 59.732ZM20.7695 64.2117C20.8297 64.2117 20.8141 64.3328 20.7234 64.8781C20.6475 65.4154 20.592 65.9554 20.557 66.4969C20.4359 68.7078 20.7992 70.343 21.8891 72.5828C22.1922 73.2031 22.4344 73.718 22.4187 73.7328C22.3133 73.8242 12.2922 76.7609 9.14375 77.6234C8.20546 77.8813 7.38828 78.1078 7.32734 78.1227C7.22109 78.1539 7.20624 78.1383 7.25156 77.8805C7.59999 75.6555 9.29531 72.7492 11.657 70.2969C13.2305 68.6617 14.4875 67.7086 16.6367 66.4828C18.1805 65.6047 20.557 64.2875 20.7383 64.2273C20.7383 64.2117 20.7539 64.2117 20.7695 64.2117ZM44.3828 68.4352C44.3984 68.4195 44.7609 68.6172 45.2 68.8742C48.4398 70.7516 52.95 72.4922 56.7945 73.3852L57.143 73.4609L56.6586 73.7336C54.6461 74.8539 48.0305 77.6086 41.2648 80.1359C40.2805 80.4992 39.3117 80.8625 39.1305 80.9383C38.9484 81.0141 38.782 81.0594 38.782 81.0438C38.782 81.0281 39.0547 80.4992 39.4023 79.8484C41.2945 76.3062 43.2016 71.9922 44.1711 68.9953C44.2922 68.7078 44.3672 68.4508 44.382 68.4352H44.3828ZM41.9766 69.2219C41.9914 69.2375 41.8703 69.5555 41.7187 69.9188C40.4016 73.1125 38.6758 76.5945 36.4656 80.4992C35.9062 81.4992 35.4367 82.3008 35.4219 82.3008C35.4062 82.3008 34.9523 82.0281 34.407 81.6953C31.1984 79.7273 28.3523 77.3055 26.4914 74.9594L26.218 74.6266L27.5961 74.2477C32.5305 72.9008 36.7234 71.4477 40.8859 69.6617C41.4766 69.4195 41.9617 69.2219 41.9766 69.2219ZM56.9312 74.4445C56.9469 74.793 56.1742 77.9109 55.5383 80.1664C55.0086 82.0586 54.5547 83.5414 53.7219 86.1602C53.3594 87.3117 53.0422 88.2641 53.0266 88.2641C53.0109 88.2641 52.9203 88.25 52.8289 88.2195C48.3336 87.4016 44.307 86.2664 40.5226 84.7531C39.4633 84.3289 37.95 83.6477 37.8586 83.5719C37.8289 83.5414 38.7367 83.118 39.8875 82.6187C46.775 79.6062 53.9187 76.1852 56.3719 74.7172C56.6594 74.5352 56.8859 74.4445 56.9312 74.4445ZM22.4039 75.625C22.4344 75.6563 20.5117 78.4258 17.818 82.1953C16.8789 83.5117 15.7891 85.0555 15.3805 85.6305C14.9077 86.2974 14.4485 86.9738 14.0031 87.6594L13.3672 88.6437L12.6859 88.068C11.8836 87.4016 10.4914 85.9789 9.87031 85.1922C8.56874 83.5727 7.69062 81.8617 7.34296 80.3031C7.17578 79.5766 7.17578 79.2125 7.32734 79.168C10.0094 78.5272 12.6938 77.8962 15.3805 77.275C17.1885 76.8588 18.9947 76.4351 20.7992 76.0039C21.6773 75.7922 22.3891 75.625 22.4039 75.625ZM24.3414 76.3672L24.8258 76.9117C27.0055 79.3492 29.2305 81.1508 31.925 82.7242C32.4094 82.9977 32.7726 83.2398 32.7422 83.2555C32.6367 83.3305 23.3875 86.6148 19.1039 88.0984C17.639 88.6175 16.1707 89.1272 14.6992 89.6273C14.6844 89.6273 14.5477 89.5359 14.3969 89.4305L14.1242 89.2336L14.5633 88.5977C15.9852 86.5391 17.7719 84.2836 21.6617 79.5914L24.3414 76.3672ZM36.4211 85.0102C36.4359 84.9945 37.1016 85.2367 37.9195 85.5406C39.8875 86.282 41.4461 86.7516 43.5351 87.2812C46.1086 87.932 49.832 88.568 52.0273 88.75C52.3601 88.7797 52.5414 88.8102 52.4812 88.8555C52.375 88.9156 50.15 89.6578 48.5156 90.1719C45.9117 90.9898 37.9648 93.3359 31.4859 95.1977C30.7257 95.4201 29.964 95.6373 29.2008 95.8492C29.0492 95.8789 28.5492 95.7422 28.5492 95.682C28.5492 95.6523 28.9125 95.1828 29.3516 94.668C31.5312 92.0641 33.6961 89.1578 35.4977 86.4031C35.9977 85.6461 36.4211 85.025 36.4211 85.0102ZM33.757 85.0859C33.7719 85.1016 32.6969 86.8266 30.8195 89.7937C30.018 91.05 29.1242 92.4734 28.807 92.9727C28.5039 93.457 28.0492 94.2141 27.793 94.6375L27.3539 95.4094L27.1266 95.3492C26.5812 95.1977 22.7516 93.85 21.7375 93.4414C20.535 92.9628 19.3579 92.4225 18.2109 91.8227C17 91.1711 15.4867 90.2023 15.6078 90.1719C15.6375 90.1562 17.7117 89.5969 20.2094 88.9156C26.8383 87.1141 30.5172 86.0703 32.9242 85.3133C33.3633 85.1766 33.7414 85.0711 33.7562 85.0867L33.757 85.0859ZM52.6023 89.5055H52.618C52.6781 89.6578 50.2258 96.4688 49.332 98.618C49.1359 99.1023 49.0602 99.2242 48.9539 99.2086C48.6969 99.193 45.1398 98.6945 42.975 98.3766C39.2062 97.8016 32.8781 96.6961 31.2898 96.3328L30.9258 96.257L33.1812 95.7422C38.025 94.6523 40.3562 94.0625 42.718 93.3359C45.7674 92.4028 48.7468 91.2543 51.6336 89.8992C52.1023 89.6883 52.4961 89.5203 52.6023 89.5055Z" fill="url(#paint0_linear_22_52)"/>
<path d="M41.3555 0.00078125C41.0227 -0.0445312 35.6484 1.89297 32.1828 3.30078C27.5047 5.20781 23.8727 7.02422 21.632 8.59844C20.7992 9.18906 19.7547 10.2336 19.5883 10.6422C19.5264 10.8067 19.4956 10.9813 19.4977 11.157L21.5266 13.0789L26.3547 14.6234L37.8437 16.682L50.982 18.9375L51.1187 17.8023C51.0734 17.8023 51.043 17.7867 50.9977 17.7867L49.2719 17.5148L48.9242 16.8938C47.1375 13.7453 45.1703 9.83984 44.0195 7.20625C43.1273 5.1625 42.2789 2.80156 41.8101 1.10625C41.5523 0.0765625 41.5227 0.015625 41.3555 0V0.00078125ZM41.1133 0.772656H41.1289C41.1437 0.788281 41.2039 1.2125 41.2648 1.71172C41.5226 3.83047 41.9914 5.87422 42.7336 8.08437C43.293 9.74844 43.293 9.65859 42.6422 9.46172C41.0984 9.03828 34.1812 7.84219 29.1703 7.14531C28.368 7.03984 27.6867 6.93437 27.6867 6.91875C27.6266 6.85781 31.3039 4.93594 32.9242 4.17891C34.9977 3.22578 40.6898 0.848438 41.1133 0.772656ZM26.5211 7.55469L27.1117 7.75156C30.3211 8.84141 38.3883 10.3859 42.8391 10.7492C43.3383 10.7945 43.7625 10.8398 43.7766 10.8398C43.7922 10.8555 43.3687 11.082 42.8234 11.3391C40.6742 12.4141 38.3125 13.7313 36.6781 14.7453C36.1937 15.0477 35.7547 15.2906 35.6937 15.2906C35.6336 15.2906 35.3156 15.2297 34.9828 15.1836L34.3773 15.093L32.8633 13.6094C31.0227 11.8168 29.1711 10.0355 27.3086 8.26562L26.5211 7.55469ZM25.9156 8.02422L28.05 10.6883C29.2156 12.157 30.3969 13.5945 30.6539 13.9125C30.9117 14.2305 31.1227 14.4875 31.107 14.5031C31.0469 14.5484 28.0195 13.9578 26.4156 13.5953C24.7656 13.2164 24.0844 13.0344 23.0703 12.7164L22.2375 12.4438V12.2328C22.2531 11.2172 23.5398 9.70391 25.7187 8.16094L25.9156 8.02422ZM44.05 11.657C44.1101 11.657 44.1859 11.793 44.3672 12.2016C44.8828 13.3367 46.4867 16.3945 46.8805 16.9852C47.0016 17.182 47.2133 17.1977 45.0789 16.8492C39.9477 16.0164 38.2976 15.7438 38.2976 15.7141C38.2976 15.6984 38.4492 15.593 38.6461 15.4867C40.2359 14.6086 41.8398 13.4891 43.2633 12.293C43.6109 12.0055 43.9289 11.7328 43.9898 11.6875C44.0047 11.657 44.0344 11.6422 44.05 11.657Z" fill="url(#paint1_linear_22_52)"/>
<path d="M19.6945 10.4297C19.6945 10.4297 19.3617 10.9602 19.6789 11.7477C19.8758 12.232 20.4508 12.8219 21.1023 13.4273C21.1023 13.4273 27.8375 19.9969 28.6554 20.9352C32.3789 25.2344 33.9992 29.4727 34.15 35.3156C34.2414 39.0695 33.5297 42.3695 31.7586 46.1992C28.6101 53.0711 21.9648 60.6555 11.7172 69.0711L13.2156 68.5711C14.1844 67.8445 15.5015 67.0734 18.5898 65.3781C25.7187 61.4719 33.7414 57.8852 43.5804 54.1906C57.7484 48.8625 81.0445 42.6266 94.3039 40.5984L95.682 40.3867L95.4695 40.0531C94.2586 38.1758 93.4258 37.0109 92.4265 35.7695C89.5203 32.1672 85.9945 29.2461 81.6797 26.8242C75.7461 23.5086 68.0718 20.9203 58.3539 18.9984C56.5219 18.6344 52.4953 17.9383 49.2258 17.4391C43.7688 16.5995 38.3193 15.7114 32.8781 14.775C31.107 14.4719 28.4578 14.018 26.7023 13.6391C25.7937 13.4422 24.0539 13.0336 22.6914 12.5648C21.6015 12.1406 20.0273 11.7172 19.6937 10.4305L19.6945 10.4297ZM23.6 14.2141C23.6148 14.2 23.857 14.2906 24.175 14.3961C24.9001 14.6395 25.6322 14.8618 26.3703 15.0625C27.0345 15.2452 27.7004 15.4218 28.3679 15.5922C29.2758 15.8187 30.0328 16.0305 30.0476 16.0305C30.1539 16.1367 31.6828 21.0258 32.1976 22.9031C32.3945 23.6141 32.5461 24.2195 32.5312 24.2195C32.5156 24.2352 32.3492 23.9773 32.1523 23.6297C30.3812 20.5117 27.5812 17.3484 24.3414 14.8047C23.9179 14.5023 23.6 14.2297 23.6 14.2141ZM31.0469 16.2734C31.1234 16.2734 31.4562 16.3187 31.8648 16.4094C34.4375 16.9844 39.0547 17.8625 42.0054 18.3625C42.5054 18.4383 42.8992 18.5289 42.8992 18.5586C42.8992 18.5898 42.7179 18.6953 42.4906 18.8164C41.9906 19.0734 39.9781 20.2695 39.3117 20.7227C37.632 21.8437 36.1179 23.0547 35.0281 24.1445C34.589 24.5836 34.2109 24.9469 34.2109 24.9469C34.2109 24.9469 34.1203 24.6891 34.0437 24.3719C33.4992 22.2672 32.364 19.1492 31.3344 16.9539C31.1679 16.6062 31.032 16.2883 31.032 16.2586C31.032 16.2883 31.0312 16.2734 31.0469 16.2734ZM44.1562 18.7703C44.2468 18.8016 44.3984 19.3156 44.7008 20.4508C45.2683 22.716 45.5129 25.05 45.4273 27.3836C45.3969 28.0195 45.3664 28.6102 45.3359 28.6859L45.2906 28.8367L44.5039 28.5789C42.8843 28.0648 40.2508 27.293 37.9953 26.657C36.7086 26.3086 35.664 25.9914 35.664 25.9617C35.664 25.8703 37.5414 23.993 38.3437 23.282C39.8719 21.9344 44.0195 18.7258 44.1562 18.7703ZM45.2 18.9219C45.2453 18.8766 51.4672 19.9508 54.2976 20.4961C56.4023 20.9047 59.4594 21.5406 59.6414 21.6164C59.7312 21.6469 59.414 21.8273 58.3992 22.2828C54.4031 24.0836 51.4367 25.7031 48.4851 27.6711C47.7133 28.1859 47.0617 28.6102 47.0476 28.6102C47.032 28.6102 47.0164 28.1711 47.0164 27.6414C47.0164 24.7656 46.4422 21.8586 45.382 19.407C45.2758 19.1648 45.1851 18.9375 45.2 18.9227V18.9219ZM61.2906 22.1016C61.3359 22.1461 61.1398 23.3727 60.9578 24.0992C60.4125 26.3547 58.9445 29.7 57.1437 32.8484C56.825 33.4086 56.5375 33.8625 56.507 33.8773C56.4773 33.893 56.0695 33.6656 55.5992 33.393C53.8437 32.3633 51.8453 31.3953 49.6656 30.4867C49.0601 30.2289 48.5304 30.018 48.5156 29.9867C48.4093 29.8969 53.2836 26.6727 55.8562 25.1281C57.9008 23.8867 61.2312 22.0406 61.2906 22.1008V22.1016ZM62.4414 22.2828C62.5773 22.2828 65.332 23.0391 66.7703 23.4633C70.3273 24.5227 74.4148 26.0211 77.0789 27.232L78.1836 27.732L77.4117 27.9133C70.9039 29.4117 65.3328 31.1383 59.9586 33.3172C59.5195 33.4992 59.1258 33.6508 59.0961 33.6508C59.0656 33.6508 59.2172 33.3023 59.414 32.8789C61.0336 29.4422 62.0781 25.8555 62.3359 22.7969C62.3508 22.5094 62.3961 22.2828 62.4414 22.2828ZM35.0133 28.5797C35.0586 28.5344 37.1617 29.0336 38.2976 29.3516C40.0242 29.8359 43.6867 31.0625 43.6867 31.1523C43.6867 31.168 43.2781 31.5164 42.7937 31.9398C40.8109 33.5898 38.9031 35.3305 36.6172 37.5406C35.9367 38.1914 35.3617 38.7211 35.3312 38.7211C35.3 38.7211 35.2859 38.6305 35.3 38.5094C35.6484 35.9664 35.5734 32.6969 35.089 29.382C35.0429 28.9578 34.9984 28.5945 35.0133 28.5797ZM79.2281 28.625C79.2578 28.6555 78.2594 30.2289 77.6234 31.1219C76.7156 32.4242 75.3828 34.15 72.3711 37.9344C71.0439 39.6002 69.722 41.2703 68.4054 42.9445C67.8 43.7016 67.3008 44.3367 67.2844 44.3367C67.2703 44.3367 67.0734 44.0648 66.8609 43.732C65.1656 41.1883 63.1375 38.9633 60.7304 36.9656C60.3636 36.6551 59.9903 36.3521 59.6109 36.057C59.4437 35.9359 59.3078 35.8148 59.3078 35.7992C59.3078 35.7547 61.8804 34.6492 63.8336 33.8625C67.2554 32.4695 71.9164 30.8047 75.414 29.7297C77.2453 29.1547 79.1976 28.5945 79.2281 28.625ZM80.3937 28.9273C80.4539 28.9125 80.8179 29.0945 81.2562 29.3516C84.9351 31.4555 88.5375 34.1656 91.3828 36.95C92.1851 37.7375 94.1687 39.7961 94.1383 39.8109C94.1383 39.8109 93.4414 39.8719 92.6242 39.932C86.2515 40.4164 78.0929 41.7633 70.2523 43.6555C69.7218 43.7766 69.2523 43.882 69.2226 43.882C69.1929 43.882 69.7828 43.2922 70.525 42.5812C75.1265 38.1461 77.2304 35.3461 79.7125 30.35C80.0609 29.6094 80.3633 28.9727 80.3937 28.9273C80.3781 28.9273 80.3781 28.9273 80.3937 28.9273ZM46.6836 32.3789C46.8953 32.4242 48.8633 33.3477 50.3469 34.0898C51.7094 34.7703 53.7531 35.8602 53.8586 35.9516C53.8742 35.9664 53.1476 36.3445 52.2539 36.7844C49.5855 38.111 46.9746 39.55 44.4281 41.0977C43.7015 41.5367 43.0961 41.9 43.0812 41.9C43.0203 41.9 43.0359 41.8391 43.4445 41.0977C44.807 38.6156 45.8969 35.6484 46.5172 32.757C46.5773 32.5305 46.6383 32.3789 46.6836 32.3789ZM44.7156 32.7422C44.7609 32.7875 44.2468 34.6492 43.9289 35.6641C43.3078 37.5859 42.2633 39.9922 41.2492 41.8094C41.007 42.2328 40.6437 42.8539 40.4468 43.2016L40.0687 43.807L39.2211 42.9898C38.2367 42.0367 37.4351 41.4461 36.4062 40.9156C35.9968 40.7047 35.6789 40.5227 35.6789 40.4922C35.6789 40.3711 38.2679 38.025 40.2508 36.3297C41.6726 35.1031 44.6703 32.6969 44.7156 32.7422ZM56.75 37.6922L57.4922 38.1766C59.1875 39.282 61.1851 40.75 62.714 42.0359C63.5765 42.7469 65.2414 44.2469 65.575 44.6094L65.7562 44.8062L64.5297 45.1547C57.5976 47.0766 52.239 48.7875 45.9875 51.0883C45.2906 51.3461 44.7008 51.557 44.6554 51.557C44.5648 51.557 44.489 51.6328 46.0484 50.1945C50.0445 46.5172 53.5859 42.4602 56.2203 38.5094L56.75 37.6922ZM53.5859 38.4789C53.6172 38.5094 51.5429 41.4305 50.3015 43.0805C48.8179 45.0484 46.1843 48.3484 44.3672 50.4977C43.6109 51.3914 42.9609 52.1328 42.9297 52.1477C42.8843 52.1633 42.8687 51.9367 42.8687 51.5875C42.8687 49.7562 42.4 47.8031 41.5828 46.1383C41.2344 45.4422 41.1734 45.2758 41.25 45.2C41.5375 44.9422 45.9422 42.4297 48.7265 40.9312C50.6047 39.932 53.5406 38.4492 53.5859 38.4789ZM34.4531 43.1719C34.4984 43.1719 34.8461 43.3531 35.2406 43.5648C36.1618 44.0668 37.0334 44.6549 37.8437 45.3211C37.8742 45.3508 37.4804 45.6695 36.9656 46.0477C35.5281 47.0766 33.3484 48.7273 32.0765 49.7414C30.7445 50.8008 30.6992 50.8305 30.85 50.6039C31.85 49.075 32.3492 48.2125 32.8789 47.107C33.3661 46.079 33.7905 45.0224 34.15 43.943C34.2711 43.5055 34.4226 43.1719 34.4531 43.1719ZM39.5547 47.1672C39.6297 47.1531 39.7211 47.2891 40.1289 47.8945C40.9914 49.1813 41.6578 50.907 41.8242 52.2992L41.8554 52.6016L39.7812 53.4047C36.0726 54.8422 32.6515 56.2648 30.3359 57.325C29.4899 57.7217 28.6471 58.1253 27.8078 58.5359C27.0656 58.9141 26.4609 59.2016 26.4609 59.1867C26.4609 59.1711 26.9297 58.8234 27.5047 58.3992C32.0312 55.1148 35.9515 51.5117 38.8883 47.9094C39.2062 47.5312 39.4937 47.1828 39.5234 47.168L39.5547 47.1672ZM37.2078 47.743C37.2687 47.8031 35.5429 49.7563 34.3625 50.9523C31.4406 53.9336 28.55 56.2648 24.9625 58.5352C24.5078 58.8227 24.0992 59.0805 24.0539 59.1102C23.9484 59.1711 24.0836 59.0195 25.6586 57.3094C26.582 56.3187 27.456 55.2831 28.2773 54.2063C28.8523 53.4641 28.9578 53.3586 29.7906 52.7687C32.0164 51.1633 37.1476 47.6828 37.2078 47.743Z" fill="url(#paint2_radial_22_52)"/>
</g>
<defs>
<linearGradient id="paint0_linear_22_52" x1="19.3973" y1="90.1119" x2="26.6352" y2="85.8351" gradientUnits="userSpaceOnUse">
<stop stop-color="#909CA9"/>
<stop offset="1" stop-color="#EDEDEE"/>
</linearGradient>
<linearGradient id="paint1_linear_22_52" x1="19.563" y1="9.48306" x2="25.3868" y2="9.48306" gradientUnits="userSpaceOnUse">
<stop stop-color="#939FAB"/>
<stop offset="1" stop-color="#DCDEE1"/>
</linearGradient>
<radialGradient id="paint2_radial_22_52" cx="0" cy="0" r="1" gradientUnits="userSpaceOnUse" gradientTransform="translate(49.0151 36.2966) rotate(-171.408) scale(7.51487 15.0308)">
<stop stop-color="#2C2C2C"/>
<stop offset="1" stop-color="#1A1A1A"/>
</radialGradient>
<clipPath id="clip0_22_52">
<rect width="100" height="100" fill="white"/>
</clipPath>
</defs>
</svg>
