<svg width="100" height="95" viewBox="0 0 100 95" fill="none" xmlns="http://www.w3.org/2000/svg">
<path d="M28.125 42.8125C31.0417 31.1458 38.3333 25.3125 50 25.3125C67.5 25.3125 69.6875 38.4375 78.4375 40.625C84.2708 42.0833 89.375 39.8958 93.75 34.0625C90.8333 45.7292 83.5417 51.5625 71.875 51.5625C54.375 51.5625 52.1875 38.4375 43.4375 36.25C37.6042 34.7917 32.5 36.9792 28.125 42.8125ZM6.25 69.0625C9.16667 57.3958 16.4583 51.5625 28.125 51.5625C45.625 51.5625 47.8125 64.6875 56.5625 66.875C62.3958 68.3333 67.5 66.1458 71.875 60.3125C68.9583 71.9792 61.6667 77.8125 50 77.8125C32.5 77.8125 30.3125 64.6875 21.5625 62.5C15.7292 61.0417 10.625 63.2292 6.25 69.0625Z" fill="#C6C6C6"/>
</svg>
