<svg width="32" height="34" viewBox="0 0 32 34" fill="none" xmlns="http://www.w3.org/2000/svg">
<path d="M16.4681 3.61848C16.4195 3.53619 16.3508 3.46812 16.2688 3.42088C16.1867 3.37363 16.0942 3.34881 16 3.34881C15.9058 3.34881 15.8133 3.37363 15.7312 3.42088C15.6492 3.46812 15.5805 3.53619 15.5319 3.61848L3.36022 24.0317C3.32014 24.099 3.29445 24.1741 3.28483 24.2522C3.27521 24.3303 3.28188 24.4096 3.30439 24.4849C3.32691 24.5602 3.36477 24.6298 3.41548 24.6891C3.4662 24.7484 3.52862 24.796 3.59866 24.829L15.7703 30.5972C15.8423 30.6312 15.9207 30.6488 16 30.6488C16.0793 30.6488 16.1577 30.6312 16.2297 30.5972L28.4013 24.829C28.4714 24.796 28.5338 24.7484 28.5845 24.6891C28.6352 24.6298 28.6731 24.5602 28.6956 24.4849C28.7181 24.4096 28.7248 24.3303 28.7152 24.2522C28.7055 24.1741 28.6799 24.099 28.6398 24.0317L16.4681 3.61848ZM12.7296 1.87662C13.0711 1.3036 13.5514 0.829974 14.1242 0.501307C14.6969 0.17264 15.3429 0 16 0C16.6571 0 17.3031 0.17264 17.8758 0.501307C18.4486 0.829974 18.9289 1.3036 19.2704 1.87662L31.4421 22.2899C31.7222 22.7598 31.902 23.2847 31.9697 23.8304C32.0374 24.3762 31.9915 24.9303 31.8349 25.4566C31.6784 25.983 31.4148 26.4697 31.0614 26.8849C30.7079 27.3001 30.2726 27.6344 29.7839 27.8661L17.6122 33.6365C17.1071 33.876 16.5569 34 16 34C15.4431 34 14.8929 33.876 14.3878 33.6365L2.21612 27.8638C1.72739 27.6322 1.29207 27.2978 0.938626 26.8826C0.585184 26.4674 0.321583 25.9808 0.165065 25.4544C0.00854649 24.9281 -0.0373637 24.3739 0.0303371 23.8282C0.0980379 23.2825 0.277825 22.7575 0.557938 22.2876L12.7296 1.87662Z" fill="#1B451B"/>
</svg>
