<svg width="36" height="38" viewBox="0 0 36 38" fill="none" xmlns="http://www.w3.org/2000/svg">
<g filter="url(#filter0_d_6_131)">
<path d="M18.4681 3.61848C18.4195 3.53619 18.3508 3.46812 18.2688 3.42088C18.1867 3.37363 18.0942 3.34881 18 3.34881C17.9058 3.34881 17.8133 3.37363 17.7312 3.42088C17.6492 3.46812 17.5805 3.53619 17.5319 3.61848L5.36022 24.0317C5.32014 24.099 5.29445 24.1741 5.28483 24.2522C5.27521 24.3303 5.28188 24.4096 5.30439 24.4849C5.32691 24.5602 5.36477 24.6298 5.41548 24.6891C5.4662 24.7484 5.52862 24.796 5.59866 24.829L17.7703 30.5972C17.8423 30.6312 17.9207 30.6488 18 30.6488C18.0793 30.6488 18.1577 30.6312 18.2297 30.5972L30.4013 24.829C30.4714 24.796 30.5338 24.7484 30.5845 24.6891C30.6352 24.6298 30.6731 24.5602 30.6956 24.4849C30.7181 24.4096 30.7248 24.3303 30.7152 24.2522C30.7055 24.1741 30.6799 24.099 30.6398 24.0317L18.4681 3.61848ZM14.7296 1.87662C15.0711 1.3036 15.5514 0.829974 16.1242 0.501307C16.6969 0.17264 17.3429 0 18 0C18.6571 0 19.3031 0.17264 19.8758 0.501307C20.4486 0.829974 20.9289 1.3036 21.2704 1.87662L33.4421 22.2899C33.7222 22.7598 33.902 23.2847 33.9697 23.8304C34.0374 24.3762 33.9915 24.9303 33.8349 25.4566C33.6784 25.983 33.4148 26.4697 33.0614 26.8849C32.7079 27.3001 32.2726 27.6344 31.7839 27.8661L19.6122 33.6365C19.1071 33.876 18.5569 34 18 34C17.4431 34 16.8929 33.876 16.3878 33.6365L4.21612 27.8638C3.72739 27.6322 3.29207 27.2978 2.93863 26.8826C2.58518 26.4674 2.32158 25.9808 2.16506 25.4544C2.00855 24.9281 1.96264 24.3739 2.03034 23.8282C2.09804 23.2825 2.27782 22.7575 2.55794 22.2876L14.7296 1.87662Z" fill="#1B451B"/>
</g>
<defs>
<filter id="filter0_d_6_131" x="0" y="0" width="36" height="38" filterUnits="userSpaceOnUse" color-interpolation-filters="sRGB">
<feFlood flood-opacity="0" result="BackgroundImageFix"/>
<feColorMatrix in="SourceAlpha" type="matrix" values="0 0 0 0 0 0 0 0 0 0 0 0 0 0 0 0 0 0 127 0" result="hardAlpha"/>
<feOffset dy="2"/>
<feGaussianBlur stdDeviation="1"/>
<feComposite in2="hardAlpha" operator="out"/>
<feColorMatrix type="matrix" values="0 0 0 0 0.846903 0 0 0 0 0.904167 0 0 0 0 0.832587 0 0 0 1 0"/>
<feBlend mode="normal" in2="BackgroundImageFix" result="effect1_dropShadow_6_131"/>
<feBlend mode="normal" in="SourceGraphic" in2="effect1_dropShadow_6_131" result="shape"/>
</filter>
</defs>
</svg>
